<svg width="71" height="71" viewBox="0 0 71 71" fill="none" xmlns="http://www.w3.org/2000/svg">
<g clip-path="url(#clip0_17_287)">
<rect width="71" height="71" fill="white"/>
<path d="M20.0648 25H11.0531V21.4609H20.0648V25ZM12.6117 25H8.20544V7.9375H12.6117V25ZM18.9047 17.957H11.0531V14.5469H18.9047V17.957ZM20.1 11.4883H11.0531V7.9375H20.1V11.4883ZM39.45 7.9375C40.7859 7.9375 41.9422 8.13672 42.9187 8.53516C43.8953 8.92578 44.6492 9.50391 45.1804 10.2695C45.7117 11.0352 45.9773 11.9844 45.9773 13.1172C45.9773 14.1328 45.825 14.9727 45.5203 15.6367C45.2234 16.293 44.8054 16.832 44.2664 17.2539C43.7351 17.668 43.1101 18.0234 42.3914 18.3203L40.95 19.1992H35.3836L35.3601 15.6484H39.4031C39.8875 15.6484 40.2898 15.5703 40.6101 15.4141C40.9383 15.2578 41.1804 15.0273 41.3367 14.7227C41.5008 14.4102 41.5828 14.0273 41.5828 13.5742C41.5828 12.918 41.4031 12.4062 41.0437 12.0391C40.6844 11.6719 40.1531 11.4883 39.45 11.4883H37.0242V25H32.6297V7.9375H39.45ZM38.1258 17.4883L42.7898 17.4531L46.5398 24.8125V25H41.8289L38.1258 17.4883Z" fill="#D00000"/>
<path d="M32.2711 25H23.2594V21.4609H32.2711V25ZM24.8179 25H20.4117V7.9375H24.8179V25ZM31.1109 17.957H23.2594V14.5469H31.1109V17.957ZM32.3062 11.4883H23.2594V7.9375H32.3062V11.4883Z" fill="black"/>
<path d="M14.5391 26.0482C15.875 26.0482 17.0312 26.2474 18.0078 26.6459C18.9844 27.0365 19.7383 27.6146 20.2695 28.3802C20.8008 29.1459 21.0664 30.0951 21.0664 31.2279C21.0664 32.2435 20.9141 33.0834 20.6094 33.7474C20.3125 34.4037 19.8945 34.9427 19.3555 35.3646C18.8242 35.7787 18.1992 36.1342 17.4805 36.431L16.0391 37.3099H10.4727L10.4492 33.7592H14.4922C14.9766 33.7592 15.3789 33.681 15.6992 33.5248C16.0273 33.3685 16.2695 33.1381 16.4258 32.8334C16.5898 32.5209 16.6719 32.1381 16.6719 31.6849C16.6719 31.0287 16.4922 30.517 16.1328 30.1498C15.7734 29.7826 15.2422 29.599 14.5391 29.599H12.1133V43.1107H7.71875V26.0482H14.5391ZM13.2148 35.599L17.8789 35.5638L21.6289 42.9232V43.1107H16.918L13.2148 35.599ZM51.3031 34.8373C51.3031 36.6029 50.9789 38.1224 50.3305 39.3959C49.6898 40.6615 48.8031 41.6381 47.6703 42.3256C46.5375 43.0052 45.2406 43.3451 43.7797 43.3451C42.3031 43.3451 40.9945 43.0052 39.8539 42.3256C38.7133 41.6381 37.8188 40.6615 37.1703 39.3959C36.5297 38.1224 36.2094 36.6029 36.2094 34.8373V34.3334C36.2094 32.5677 36.5297 31.0521 37.1703 29.7865C37.8109 28.5131 38.6977 27.5326 39.8305 26.8451C40.9711 26.1576 42.2797 25.8138 43.7563 25.8138C45.2172 25.8138 46.5141 26.1576 47.6469 26.8451C48.7875 27.5326 49.682 28.5131 50.3305 29.7865C50.9789 31.0521 51.3031 32.5677 51.3031 34.3334V34.8373ZM46.8383 34.3099C46.8383 33.2318 46.7172 32.3295 46.475 31.6029C46.2406 30.8763 45.893 30.3295 45.432 29.9623C44.9711 29.5951 44.4125 29.4115 43.7563 29.4115C43.0688 29.4115 42.4984 29.5951 42.0453 29.9623C41.5922 30.3295 41.2523 30.8763 41.0258 31.6029C40.7992 32.3295 40.6859 33.2318 40.6859 34.3099V34.8373C40.6859 35.892 40.7992 36.7865 41.0258 37.5209C41.2602 38.2552 41.6039 38.8138 42.057 39.1967C42.518 39.5717 43.0922 39.7592 43.7797 39.7592C44.4359 39.7592 44.9906 39.5717 45.4438 39.1967C45.9047 38.8138 46.2523 38.2552 46.4867 37.5209C46.7211 36.7865 46.8383 35.892 46.8383 34.8373V34.3099Z" fill="black"/>
<path d="M29.0188 26.0482C30.3547 26.0482 31.5109 26.2474 32.4875 26.6459C33.4641 27.0365 34.218 27.6146 34.7492 28.3802C35.2805 29.1459 35.5461 30.0951 35.5461 31.2279C35.5461 32.2435 35.3938 33.0834 35.0891 33.7474C34.7922 34.4037 34.3742 34.9427 33.8352 35.3646C33.3039 35.7787 32.6789 36.1342 31.9602 36.431L30.5188 37.3099H24.9523L24.9289 33.7592H28.9719C29.4563 33.7592 29.8586 33.681 30.1789 33.5248C30.507 33.3685 30.7492 33.1381 30.9055 32.8334C31.0695 32.5209 31.1516 32.1381 31.1516 31.6849C31.1516 31.0287 30.9719 30.517 30.6125 30.1498C30.2531 29.7826 29.7219 29.599 29.0188 29.599H26.593V43.1107H22.1984V26.0482H29.0188ZM27.6945 35.599L32.3586 35.5638L36.1086 42.9232V43.1107H31.3977L27.6945 35.599Z" fill="#D00000"/>
<path d="M58.3438 34.8373C58.3438 36.6029 58.0195 38.1224 57.3711 39.3959C56.7305 40.6615 55.8438 41.6381 54.7109 42.3256C53.5781 43.0052 52.2812 43.3451 50.8203 43.3451C49.3438 43.3451 48.0352 43.0052 46.8945 42.3256C45.7539 41.6381 44.8594 40.6615 44.2109 39.3959C43.5703 38.1224 43.25 36.6029 43.25 34.8373V34.3334C43.25 32.5677 43.5703 31.0521 44.2109 29.7865C44.8516 28.5131 45.7383 27.5326 46.8711 26.8451C48.0117 26.1576 49.3203 25.8138 50.7969 25.8138C52.2578 25.8138 53.5547 26.1576 54.6875 26.8451C55.8281 27.5326 56.7227 28.5131 57.3711 29.7865C58.0195 31.0521 58.3438 32.5677 58.3438 34.3334V34.8373ZM53.8789 34.3099C53.8789 33.2318 53.7578 32.3295 53.5156 31.6029C53.2812 30.8763 52.9336 30.3295 52.4727 29.9623C52.0117 29.5951 51.4531 29.4115 50.7969 29.4115C50.1094 29.4115 49.5391 29.5951 49.0859 29.9623C48.6328 30.3295 48.293 30.8763 48.0664 31.6029C47.8398 32.3295 47.7266 33.2318 47.7266 34.3099V34.8373C47.7266 35.892 47.8398 36.7865 48.0664 37.5209C48.3008 38.2552 48.6445 38.8138 49.0977 39.1967C49.5586 39.5717 50.1328 39.7592 50.8203 39.7592C51.4766 39.7592 52.0312 39.5717 52.4844 39.1967C52.9453 38.8138 53.293 38.2552 53.5273 37.5209C53.7617 36.7865 53.8789 35.892 53.8789 34.8373V34.3099Z" fill="#D00000"/>
<path d="M29.3729 44.5499C30.7089 44.5499 31.8651 44.7491 32.8417 45.1476C33.8182 45.5382 34.5721 46.1163 35.1034 46.882C35.6346 47.6476 35.9003 48.5968 35.9003 49.7296C35.9003 50.7452 35.7479 51.5851 35.4432 52.2491C35.1464 52.9054 34.7284 53.4445 34.1893 53.8663C33.6581 54.2804 33.0331 54.6359 32.3143 54.9327L30.8729 55.8116H25.3065L25.2831 52.2609H29.326C29.8104 52.2609 30.2128 52.1827 30.5331 52.0265C30.8612 51.8702 31.1034 51.6398 31.2596 51.3351C31.4237 51.0226 31.5057 50.6398 31.5057 50.1866C31.5057 49.5304 31.326 49.0187 30.9667 48.6515C30.6073 48.2843 30.076 48.1007 29.3729 48.1007H26.9471V61.6124H22.5526V44.5499H29.3729ZM28.0487 54.1007L32.7128 54.0656L36.4628 61.4249V61.6124H31.7518L28.0487 54.1007Z" fill="black"/>
<path d="M43.8526 44.5499C45.1885 44.5499 46.3448 44.7491 47.3214 45.1476C48.2979 45.5382 49.0518 46.1163 49.5831 46.882C50.1143 47.6476 50.38 48.5968 50.38 49.7296C50.38 50.7452 50.2276 51.5851 49.9229 52.2491C49.626 52.9054 49.2081 53.4445 48.669 53.8663C48.1378 54.2804 47.5128 54.6359 46.794 54.9327L45.3526 55.8116H39.7862L39.7628 52.2609H43.8057C44.2901 52.2609 44.6925 52.1827 45.0128 52.0265C45.3409 51.8702 45.5831 51.6398 45.7393 51.3351C45.9034 51.0226 45.9854 50.6398 45.9854 50.1866C45.9854 49.5304 45.8057 49.0187 45.4464 48.6515C45.087 48.2843 44.5557 48.1007 43.8526 48.1007H41.4268V61.6124H37.0323V44.5499H43.8526ZM42.5284 54.1007L47.1925 54.0656L50.9425 61.4249V61.6124H46.2315L42.5284 54.1007Z" fill="#D00000"/>
</g>
<defs>
<clipPath id="clip0_17_287">
<rect width="71" height="71" fill="white"/>
</clipPath>
</defs>
</svg>
