<svg width="71" height="71" viewBox="0 0 71 71" fill="none" xmlns="http://www.w3.org/2000/svg">
<g clip-path="url(#clip0_12_278)">
<path d="M16.8892 20.4062C16.8892 20.1016 16.8228 19.832 16.6899 19.5977C16.5649 19.3633 16.2993 19.1328 15.8931 18.9062C15.4946 18.6719 14.8853 18.418 14.0649 18.1445C13.3306 17.8945 12.6157 17.6094 11.9204 17.2891C11.2251 16.9688 10.6001 16.5938 10.0454 16.1641C9.49072 15.7266 9.04932 15.2148 8.72119 14.6289C8.39307 14.0352 8.229 13.3438 8.229 12.5547C8.229 11.5547 8.51807 10.6953 9.09619 9.97656C9.67432 9.25 10.4634 8.69141 11.4634 8.30078C12.4634 7.90234 13.6001 7.70312 14.8735 7.70312C16.1313 7.70312 17.2407 7.91797 18.2017 8.34766C19.1704 8.76953 19.9282 9.37891 20.4751 10.1758C21.0298 10.9727 21.3071 11.9258 21.3071 13.0352H16.9243C16.9243 12.668 16.8462 12.3438 16.6899 12.0625C16.5415 11.7812 16.3071 11.5625 15.9868 11.4062C15.6743 11.25 15.272 11.1719 14.7798 11.1719C14.3032 11.1719 13.9009 11.2383 13.5728 11.3711C13.2524 11.5039 13.0103 11.6797 12.8462 11.8984C12.6899 12.1094 12.6118 12.3477 12.6118 12.6133C12.6118 12.918 12.7368 13.1836 12.9868 13.4102C13.2368 13.6367 13.5845 13.8477 14.0298 14.043C14.4751 14.2383 14.9907 14.4336 15.5767 14.6289C16.7954 15.0195 17.8267 15.4766 18.6704 16C19.522 16.5156 20.1704 17.1328 20.6157 17.8516C21.061 18.5625 21.2837 19.4062 21.2837 20.3828C21.2837 21.4219 21.022 22.3047 20.4985 23.0312C19.9829 23.75 19.2485 24.2969 18.2954 24.6719C17.3423 25.0469 16.2212 25.2344 14.9321 25.2344C14.0415 25.2344 13.1665 25.1211 12.3071 24.8945C11.4556 24.668 10.6821 24.3164 9.98682 23.8398C9.29932 23.3633 8.74854 22.7539 8.33447 22.0117C7.92822 21.2617 7.7251 20.3672 7.7251 19.3281H12.1313C12.1313 19.7969 12.186 20.1875 12.2954 20.5C12.4126 20.8125 12.5884 21.0664 12.8228 21.2617C13.0571 21.4492 13.3501 21.5859 13.7017 21.6719C14.0532 21.75 14.4634 21.7891 14.9321 21.7891C15.4165 21.7891 15.7993 21.7227 16.0806 21.5898C16.3696 21.457 16.5767 21.2852 16.7017 21.0742C16.8267 20.8633 16.8892 20.6406 16.8892 20.4062ZM39.6259 17.9336L39.6024 14.9688H43.1063C44.0204 14.9688 44.661 14.832 45.0282 14.5586C45.3954 14.2773 45.579 13.8594 45.579 13.3047C45.579 12.6484 45.3876 12.1836 45.0048 11.9102C44.622 11.6289 44.0009 11.4883 43.1415 11.4883H41.2899V25H36.8837V7.9375H43.1415C45.2821 7.9375 46.954 8.33203 48.1571 9.12109C49.3681 9.90234 49.9735 11.0938 49.9735 12.6953C49.9735 13.3906 49.8251 14.0508 49.5282 14.6758C49.2313 15.293 48.7274 15.793 48.0165 16.1758C47.3134 16.5586 46.3446 16.7461 45.1103 16.7383L43.9618 17.9336H39.6259ZM38.5595 25L40.0595 21.4609H43.7978C44.5868 21.4609 45.1376 21.2969 45.4501 20.9688C45.7626 20.6406 45.9188 20.2617 45.9188 19.832C45.9188 19.4336 45.8524 19.0938 45.7196 18.8125C45.5946 18.5312 45.3876 18.3164 45.0985 18.168C44.8173 18.0117 44.4384 17.9336 43.9618 17.9336H40.4462L40.4696 14.9688H44.6181L45.6493 16.1758C46.829 16.0977 47.7548 16.2422 48.4267 16.6094C49.1063 16.9688 49.5868 17.4492 49.8681 18.0508C50.1571 18.6445 50.3017 19.2617 50.3017 19.9023C50.3017 21.5977 49.7548 22.8711 48.661 23.7227C47.5673 24.5742 45.9462 25 43.7978 25H38.5595Z" fill="#3F8CFF"/>
<path d="M35.6579 7.9375V18.9883C35.6579 20.332 35.3767 21.4688 34.8142 22.3984C34.2595 23.3281 33.4743 24.0352 32.4587 24.5195C31.4509 24.9961 30.2634 25.2344 28.8962 25.2344C27.5446 25.2344 26.3532 24.9961 25.322 24.5195C24.2985 24.0352 23.5017 23.3281 22.9313 22.3984C22.361 21.4688 22.0759 20.332 22.0759 18.9883V7.9375H26.4938V18.9883C26.4938 19.6367 26.5837 20.1602 26.7634 20.5586C26.9431 20.957 27.2126 21.2461 27.572 21.4258C27.9313 21.6055 28.3728 21.6953 28.8962 21.6953C29.4274 21.6953 29.8649 21.6055 30.2087 21.4258C30.5603 21.2461 30.822 20.957 30.9938 20.5586C31.1735 20.1602 31.2634 19.6367 31.2634 18.9883V7.9375H35.6579Z" fill="black"/>
<path d="M21.6992 37.2396C21.6523 38.4427 21.332 39.5052 20.7383 40.4271C20.1445 41.3412 19.3203 42.056 18.2656 42.5717C17.2188 43.0873 15.9844 43.3451 14.5625 43.3451C13.0234 43.3451 11.707 43.0092 10.6133 42.3373C9.51953 41.6576 8.68359 40.6888 8.10547 39.431C7.53516 38.1732 7.25 36.6732 7.25 34.931V34.2396C7.25 32.4896 7.55078 30.9857 8.15234 29.7279C8.75391 28.4701 9.59375 27.5013 10.6719 26.8217C11.7578 26.142 13.0312 25.8021 14.4922 25.8021C16.0078 25.8021 17.2812 26.0756 18.3125 26.6224C19.3516 27.1693 20.1523 27.9154 20.7148 28.8607C21.2852 29.806 21.6211 30.8724 21.7227 32.0599H17.3398C17.3242 31.1693 17.1094 30.5052 16.6953 30.0677C16.2812 29.6302 15.5469 29.4115 14.4922 29.4115C13.8594 29.4115 13.3359 29.5638 12.9219 29.8685C12.5156 30.1654 12.2109 30.6654 12.0078 31.3685C11.8125 32.0638 11.7148 33.0131 11.7148 34.2162V34.931C11.7148 36.142 11.8008 37.099 11.9727 37.8021C12.1523 38.4974 12.4492 38.9935 12.8633 39.2904C13.2852 39.5873 13.8516 39.7357 14.5625 39.7357C15.1484 39.7357 15.6445 39.6498 16.0508 39.4779C16.457 39.306 16.7656 39.0365 16.9766 38.6693C17.1953 38.3021 17.3086 37.8256 17.3164 37.2396H21.6992ZM48.4672 43.1107H39.8891V39.5717H48.4672V43.1107ZM41.4359 43.1107H37.0414V26.0482H41.4359V43.1107Z" fill="black"/>
<path d="M35.8156 26.0482V37.099C35.8156 38.4427 35.5344 39.5795 34.9719 40.5092C34.4172 41.4388 33.632 42.1459 32.6164 42.6302C31.6086 43.1068 30.4211 43.3451 29.0539 43.3451C27.7023 43.3451 26.5109 43.1068 25.4797 42.6302C24.4563 42.1459 23.6594 41.4388 23.0891 40.5092C22.5188 39.5795 22.2336 38.4427 22.2336 37.099V26.0482H26.6516V37.099C26.6516 37.7474 26.7414 38.2709 26.9211 38.6693C27.1008 39.0677 27.3703 39.3568 27.7297 39.5365C28.0891 39.7162 28.5305 39.806 29.0539 39.806C29.5852 39.806 30.0227 39.7162 30.3664 39.5365C30.718 39.3568 30.9797 39.0677 31.1516 38.6693C31.3313 38.2709 31.4211 37.7474 31.4211 37.099V26.0482H35.8156Z" fill="#3F8CFF"/>
<path d="M55.2383 43.1107H50.8438V26.0482H55.2383V43.1107ZM60.2773 29.599H45.9102V26.0482H60.2773V29.599Z" fill="#3F8CFF"/>
<path d="M36.0762 44.5499V55.6007C36.0762 56.9445 35.7949 58.0812 35.2324 59.0109C34.6777 59.9406 33.8926 60.6476 32.877 61.132C31.8691 61.6085 30.6816 61.8468 29.3145 61.8468C27.9629 61.8468 26.7715 61.6085 25.7402 61.132C24.7168 60.6476 23.9199 59.9406 23.3496 59.0109C22.7793 58.0812 22.4941 56.9445 22.4941 55.6007V44.5499H26.9121V55.6007C26.9121 56.2491 27.002 56.7726 27.1816 57.171C27.3613 57.5695 27.6309 57.8585 27.9902 58.0382C28.3496 58.2179 28.791 58.3077 29.3145 58.3077C29.8457 58.3077 30.2832 58.2179 30.627 58.0382C30.9785 57.8585 31.2402 57.5695 31.4121 57.171C31.5918 56.7726 31.6816 56.2491 31.6816 55.6007V44.5499H36.0762ZM63.641 61.6124H54.6293V58.0734H63.641V61.6124ZM56.1879 61.6124H51.7816V44.5499H56.1879V61.6124ZM62.4809 54.5695H54.6293V51.1593H62.4809V54.5695ZM63.6762 48.1007H54.6293V44.5499H63.6762V48.1007Z" fill="black"/>
<path d="M44.134 44.5499C45.4699 44.5499 46.6262 44.7491 47.6027 45.1476C48.5793 45.5382 49.3332 46.1163 49.8645 46.882C50.3957 47.6476 50.6613 48.5968 50.6613 49.7296C50.6613 50.7452 50.509 51.5851 50.2043 52.2491C49.9074 52.9054 49.4895 53.4445 48.9504 53.8663C48.4191 54.2804 47.7941 54.6359 47.0754 54.9327L45.634 55.8116H40.0676L40.0441 52.2609H44.0871C44.5715 52.2609 44.9738 52.1827 45.2941 52.0265C45.6223 51.8702 45.8645 51.6398 46.0207 51.3351C46.1848 51.0226 46.2668 50.6398 46.2668 50.1866C46.2668 49.5304 46.0871 49.0187 45.7277 48.6515C45.3684 48.2843 44.8371 48.1007 44.134 48.1007H41.7082V61.6124H37.3137V44.5499H44.134ZM42.8098 54.1007L47.4738 54.0656L51.2238 61.4249V61.6124H46.5129L42.8098 54.1007Z" fill="#3F8CFF"/>
</g>
<defs>
<clipPath id="clip0_12_278">
<rect width="71" height="71"/>
</clipPath>
</defs>
</svg>
